<?xml version='1.0' encoding='UTF-8'?>
<svg xmlns="http://www.w3.org/2000/svg" viewBox="180 840 300 300"><defs>
    <style>
      .cls-1, .cls-2 {
        fill: #5136d6;
      }

      .cls-3 {
        letter-spacing: 0em;
      }

      .cls-2 {
        font-family: Questrial-Regular, Questrial;
        font-size: 195.83px;
        stroke: #5136d6;
        stroke-miterlimit: 10;
        stroke-width: 3px;
      }
    </style>
  </defs>
  <g><path class="cls-1" d="M457.37,933.57c-12.78-6.05-27.06-9.42-42.14-9.42-6.31,0-12.49.59-18.47,1.73-10.36-30.93-35.62-55.03-67.26-63.77-31.63,8.74-56.9,32.84-67.25,63.77-5.98-1.13-12.16-1.73-18.47-1.73-15.08,0-29.37,3.38-42.15,9.42-1.87,7.58-2.86,15.51-2.86,23.66,0,54.51,44.19,98.7,98.7,98.7,9.79,0,19.24-1.42,28.17-4.08-3.59-13.09-9.55-25.19-17.4-35.81-15.83-21.43-39.33-36.86-66.44-42.21,6.88-1.37,13.99-2.08,21.27-2.08,25.01,0,48.05,8.43,66.44,22.59,18.39-14.17,41.43-22.59,66.43-22.59,7.28,0,14.39.71,21.27,2.08-27.11,5.36-50.61,20.78-66.44,42.21-7.85,10.62-13.81,22.72-17.4,35.81,8.93,2.66,18.39,4.08,28.18,4.08,54.5,0,98.69-44.19,98.69-98.7,0-8.16-.99-16.08-2.86-23.66ZM329.5,976.94c-10.47,0-18.97-8.49-18.97-18.97s8.49-18.97,18.97-18.97,18.97,8.49,18.97,18.97-8.49,18.97-18.97,18.97Z"/>
  </g></svg>